<svg width="50" height="48" viewBox="0 0 50 48" fill="none" xmlns="http://www.w3.org/2000/svg">
<path d="M23.7833 47.1167C23.2027 46.5361 22.8987 45.7972 22.8713 44.9C22.8439 44.0028 23.1215 43.2639 23.7041 42.6833L39.2208 27.1667H3.8333C2.93608 27.1667 2.18347 26.8627 1.57547 26.2547C0.967471 25.6467 0.664526 24.8951 0.666637 24C0.666637 23.1028 0.970637 22.3502 1.57864 21.7422C2.18664 21.1342 2.93819 20.8312 3.8333 20.8333H39.2208L23.7041 5.31668C23.1236 4.73612 22.846 3.99723 22.8713 3.10001C22.8966 2.20279 23.2006 1.4639 23.7833 0.883344C24.3639 0.302789 25.1027 0.0125122 26 0.0125122C26.8972 0.0125122 27.6361 0.302789 28.2166 0.883344L49.1166 21.7833C49.4333 22.0472 49.6581 22.3776 49.7911 22.7745C49.9241 23.1714 49.9896 23.5799 49.9875 24C49.9875 24.4222 49.922 24.8181 49.7911 25.1875C49.6603 25.557 49.4354 25.9 49.1166 26.2167L28.2166 47.1167C27.6361 47.6972 26.8972 47.9875 26 47.9875C25.1027 47.9875 24.3639 47.6972 23.7833 47.1167Z" fill="white"/>
</svg>
