<svg width="34" height="34" viewBox="0 0 34 34" fill="none" xmlns="http://www.w3.org/2000/svg">
<path d="M18.5938 27.3417L27.9438 17.9917C28.0854 17.85 28.186 17.6965 28.2455 17.5313C28.305 17.366 28.3343 17.1889 28.3334 17C28.3334 16.8111 28.3036 16.634 28.2441 16.4688C28.1846 16.3035 28.0845 16.15 27.9438 16.0083L18.5938 6.65834C18.334 6.39862 18.0092 6.26309 17.6191 6.25175C17.229 6.24042 16.8928 6.37595 16.6104 6.65834C16.3271 6.91806 16.1793 7.24295 16.167 7.633C16.1547 8.02306 16.2907 8.35928 16.575 8.64167L23.5167 15.5833H7.68543C7.28405 15.5833 6.94735 15.7193 6.67535 15.9913C6.40335 16.2633 6.26782 16.5996 6.26877 17C6.26877 17.4014 6.4043 17.7381 6.67535 18.0101C6.94641 18.2821 7.2831 18.4176 7.68543 18.4167H23.5167L16.575 25.3583C16.3153 25.6181 16.1793 25.9486 16.167 26.35C16.1547 26.7514 16.2907 27.0819 16.575 27.3417C16.8347 27.625 17.1653 27.7667 17.5667 27.7667C17.9681 27.7667 18.3104 27.625 18.5938 27.3417Z" fill="white"/>
</svg>
