<svg width="107" height="107" viewBox="0 0 107 107" fill="none" xmlns="http://www.w3.org/2000/svg">
<path d="M53.5003 78.0208C59.0733 78.0208 63.811 76.0696 67.7135 72.167C71.616 68.2645 73.5658 63.5283 73.5628 57.9583C73.5628 52.3854 71.6116 47.6477 67.709 43.7452C63.8065 39.8426 59.0703 37.8929 53.5003 37.8958C47.9274 37.8958 43.1897 39.8471 39.2872 43.7496C35.3846 47.6522 33.4349 52.3884 33.4378 57.9583C33.4378 63.5312 35.3891 68.269 39.2916 72.1715C43.1942 76.074 47.9304 78.0238 53.5003 78.0208ZM53.5003 73.5625L48.5962 62.8625L37.8962 57.9583L48.5962 53.0542L53.5003 42.3542L58.4045 53.0542L69.1045 57.9583L58.4045 62.8625L53.5003 73.5625ZM17.8337 93.625C15.3816 93.625 13.2817 92.7512 11.534 91.0035C9.78637 89.2558 8.91403 87.1574 8.917 84.7083V31.2083C8.917 28.7563 9.79083 26.6564 11.5385 24.9087C13.2862 23.161 15.3846 22.2887 17.8337 22.2917H31.8774L40.1253 13.375H66.8753L75.1233 22.2917H89.167C91.6191 22.2917 93.719 23.1655 95.4666 24.9132C97.2143 26.6608 98.0866 28.7592 98.0837 31.2083V84.7083C98.0837 87.1604 97.2098 89.2603 95.4622 91.008C93.7145 92.7556 91.6161 93.628 89.167 93.625H17.8337Z" fill="#040404"/>
</svg>
