<svg width="14" height="9" viewBox="0 0 14 9" fill="none" xmlns="http://www.w3.org/2000/svg">
<path d="M6.99977 8.47083C6.84422 8.47083 6.69333 8.44166 6.54711 8.38333C6.40088 8.325 6.27955 8.24722 6.18311 8.15L0.816438 2.78333C0.602549 2.56944 0.495605 2.29722 0.495605 1.96666C0.495605 1.63611 0.602549 1.36388 0.816438 1.15C1.03033 0.936107 1.30255 0.829163 1.63311 0.829163C1.96366 0.829163 2.23588 0.936107 2.44977 1.15L6.99977 5.7L11.5498 1.15C11.7637 0.936107 12.0359 0.829163 12.3664 0.829163C12.697 0.829163 12.9692 0.936107 13.1831 1.15C13.397 1.36388 13.5039 1.63611 13.5039 1.96666C13.5039 2.29722 13.397 2.56944 13.1831 2.78333L7.81644 8.15C7.69977 8.26666 7.57338 8.3495 7.43727 8.3985C7.30116 8.4475 7.15533 8.47161 6.99977 8.47083Z" fill="#040404"/>
</svg>
